<svg width="48" height="32" viewBox="0 0 48 32" fill="none" xmlns="http://www.w3.org/2000/svg">
  <rect width="48" height="32" rx="4" fill="white"/>
  <path d="M30.8516 8.66675H17.1484V23.3334H30.8516V8.66675Z" fill="#DEDDDD"/>
  <path d="M17.9062 16.0001C17.9062 13.0334 19.3008 10.3917 21.5273 8.66675C19.7031 7.2334 17.4023 6.33342 14.9062 6.33342C8.95703 6.33342 4.125 10.6501 4.125 16.0001C4.125 21.3501 8.95703 25.6667 14.9062 25.6667C17.4023 25.6667 19.7031 24.7667 21.5273 23.3334C19.3008 21.6084 17.9062 18.9667 17.9062 16.0001Z" fill="#EB1C26"/>
  <path d="M43.875 16.0001C43.875 21.3501 39.0429 25.6667 33.0937 25.6667C30.5976 25.6667 28.2968 24.7667 26.4726 23.3334C28.6992 21.6084 30.0937 18.9667 30.0937 16.0001C30.0937 13.0334 28.6992 10.3917 26.4726 8.66675C28.2968 7.2334 30.5976 6.33342 33.0937 6.33342C39.0429 6.33342 43.875 10.6501 43.875 16.0001Z" fill="#F99F1B"/>
</svg> 