<svg width="48" height="32" viewBox="0 0 48 32" fill="none" xmlns="http://www.w3.org/2000/svg">
  <rect width="48" height="32" rx="4" fill="white"/>
  <path d="M18.4358 21.3223H15.0217L17.087 10.6777H20.5011L18.4358 21.3223Z" fill="#00579F"/>
  <path d="M32.139 10.9285C31.4949 10.666 30.4777 10.3809 29.2129 10.3809C25.917 10.3809 23.5795 12.1094 23.5659 14.5682C23.5531 16.3851 25.2437 17.3956 26.5224 18.0195C27.8284 18.6573 28.2619 19.0664 28.2619 19.6275C28.2555 20.4839 27.2126 20.8805 26.2354 20.8805C24.8776 20.8805 24.1562 20.6714 22.9768 20.1722L22.5234 19.9619L22.0347 22.6872C22.803 23.0181 24.235 23.3125 25.7252 23.3249C29.2329 23.3249 31.5182 21.6201 31.5391 19.0025C31.5504 17.5586 30.6042 16.4519 28.6347 15.5292C27.416 14.9407 26.6826 14.545 26.6826 13.9573C26.6904 13.4194 27.2712 12.8801 28.5483 12.8801C29.6078 12.854 30.3621 13.1261 30.9463 13.3983L31.2638 13.5524L31.7316 10.9285H32.139Z" fill="#00579F"/>
  <path d="M36.8102 17.2526C37.0906 16.5114 38.1217 13.7495 38.1217 13.7495C38.1017 13.7829 38.3681 13.0536 38.513 12.6057L38.7145 13.5747C38.7145 13.5747 39.3464 16.5946 39.4815 17.2526C38.9337 17.2526 37.4864 17.2526 36.8102 17.2526ZM40.7866 10.6777H38.2031C37.5209 10.6777 37.0036 10.874 36.7232 11.5831L31.7441 21.3223H35.2574C35.2574 21.3223 35.8378 19.7225 35.9729 19.3523C36.3647 19.3523 39.7878 19.3523 40.2824 19.3523C40.3887 19.8386 40.6978 21.3223 40.6978 21.3223H43.8401L40.7866 10.6777Z" fill="#00579F"/>
  <path d="M13.4802 10.6777L10.2316 17.9088L9.91919 16.5842C9.35008 14.9532 7.80476 13.1928 6.0755 12.1989L9.04883 21.3111H12.5954L17.7227 10.6777H13.4802Z" fill="#00579F"/>
  <path d="M8.37306 10.6777H3.07993L3.00098 10.9628C7.13775 12.0584 9.84775 14.1611 10.9185 16.5841L9.9193 11.5941C9.74638 10.8871 9.13813 10.6888 8.37306 10.6777Z" fill="#FAA61A"/>
</svg> 